<svg xmlns="http://www.w3.org/2000/svg" id="mermaid-1530877781387" width="100%" height="100%" viewBox="-50 -10 950 582" style="max-width:950px"><style>#mermaid-1530877781387 .actor{stroke:#13540c;fill:#cde498}#mermaid-1530877781387 text.actor{fill:#000;stroke:none}#mermaid-1530877781387 .actor-line{stroke:gray}#mermaid-1530877781387 .messageLine0{marker-end:&quot;url(#arrowhead)&quot;;stroke-width:1.5;stroke-dasharray:&quot;2 2&quot;;stroke:#333}#mermaid-1530877781387 #arrowhead{fill:#333}#mermaid-1530877781387 #crosshead path{fill:#333!important;stroke:#333!important}#mermaid-1530877781387 .messageText{fill:#333;stroke:none}#mermaid-1530877781387 .labelBox{stroke:#326932;fill:#cde498}#mermaid-1530877781387 .labelText,#mermaid-1530877781387 .loopText{fill:#000;stroke:none}#mermaid-1530877781387 .loopLine{stroke-width:2;stroke-dasharray:&quot;2 2&quot;;marker-end:&quot;url(#arrowhead)&quot;;stroke:#326932}#mermaid-1530877781387 .note{stroke:#6eaa49;fill:#fff5ad}#mermaid-1530877781387 .noteText{fill:#000;stroke:none;font-family:trebuchet ms,verdana,arial;font-size:14px}</style><style>#mermaid-1530877781387{color:#000;font:400 16px &quot;Times New Roman&quot;}</style><g><line id="actor0" x1="75" x2="75" y1="5" y2="571" stroke="#999" stroke-width=".5" class="actor-line"/><rect width="150" height="65" x="0" y="0" fill="#eaeaea" stroke="#666" class="actor" rx="3" ry="3"/><text x="75" y="32.5" alignment-baseline="central" class="actor" dominant-baseline="central" style="text-anchor:middle"><tspan x="75" dy="0">Writer</tspan></text></g><g><line id="actor1" x1="275" x2="275" y1="5" y2="571" stroke="#999" stroke-width=".5" class="actor-line"/><rect width="150" height="65" x="200" y="0" fill="#eaeaea" stroke="#666" class="actor" rx="3" ry="3"/><text x="275" y="32.5" alignment-baseline="central" class="actor" dominant-baseline="central" style="text-anchor:middle"><tspan x="275" dy="0">Ra Node</tspan></text></g><g><line id="actor2" x1="475" x2="475" y1="5" y2="571" stroke="#999" stroke-width=".5" class="actor-line"/><rect width="150" height="65" x="400" y="0" fill="#eaeaea" stroke="#666" class="actor" rx="3" ry="3"/><text x="475" y="32.5" alignment-baseline="central" class="actor" dominant-baseline="central" style="text-anchor:middle"><tspan x="475" dy="0">WAL</tspan></text></g><g><line id="actor3" x1="675" x2="675" y1="5" y2="571" stroke="#999" stroke-width=".5" class="actor-line"/><rect width="150" height="65" x="600" y="0" fill="#eaeaea" stroke="#666" class="actor" rx="3" ry="3"/><text x="675" y="32.5" alignment-baseline="central" class="actor" dominant-baseline="central" style="text-anchor:middle"><tspan x="675" dy="0">Segment Writer</tspan></text></g><defs><marker id="arrowhead" markerHeight="4" markerWidth="6" orient="auto" refX="5" refY="2"><path d="M 0,0 V 4 L6,2 Z"/></marker></defs><defs><marker id="crosshead" markerHeight="8" markerWidth="15" orient="auto" refX="16" refY="4"><path fill="#000" stroke="#000" stroke-width="1" d="M 9,2 V 6 L16,4 Z" style="stroke-dasharray:0,0"/><path fill="none" stroke="#000" stroke-width="1" d="M 0,1 L 6,7 M 6,1 L 0,7" style="stroke-dasharray:0,0"/></marker></defs><g><text x="175" y="93" class="messageText" style="text-anchor:middle">{command, A}</text><line x1="75" x2="275" y1="100" y2="100" stroke="#000" stroke-width="2" marker-end="url(#arrowhead)" class="messageLine0" style="fill:none"/></g><g><rect width="10" height="168" x="270" y="102" fill="#f4f4f4" stroke="#666" rx="0" ry="0"/></g><g><text x="377.5" y="128" class="messageText" style="text-anchor:middle">{write, index: 1, data: A}</text><line x1="280" x2="475" y1="135" y2="135" stroke="#000" stroke-width="2" marker-end="url(#crosshead)" class="messageLine0" style="fill:none"/></g><g><rect width="10" height="133" x="470" y="137" fill="#f4f4f4" stroke="#666" rx="0" ry="0"/></g><g><text x="480" y="163" class="messageText" style="text-anchor:middle">fsync</text><path stroke="#000" stroke-width="2" d="M 480,170 C 540,160 540,200 480,190" class="messageLine0" style="fill:none"/></g><g><text x="375" y="228" class="messageText" style="text-anchor:middle">{written, index: 1}</text><line x1="470" x2="280" y1="235" y2="235" stroke="#000" stroke-width="2" marker-end="url(#crosshead)" class="messageLine0" style="fill:none"/></g><g><text x="172.5" y="263" class="messageText" style="text-anchor:middle">command_appended</text><line x1="270" x2="75" y1="270" y2="270" stroke="#000" stroke-width="2" marker-end="url(#arrowhead)" class="messageLine0" style="fill:none"/></g><g><text x="475" y="323" class="messageText" style="text-anchor:middle">write()</text><path stroke="#000" stroke-width="2" d="M 475,330 C 535,320 535,360 475,350" class="messageLine0" style="fill:none"/></g><g><line x1="365" x2="585" y1="280" y2="280" class="loopLine"/><line x1="585" x2="585" y1="280" y2="370" class="loopLine"/><line x1="365" x2="585" y1="370" y2="370" class="loopLine"/><line x1="365" x2="365" y1="280" y2="370" class="loopLine"/><polygon points="365 280 415 280 415 293 406.6 300 365 300" class="labelBox"/><text x="372.5" y="295" fill="#000" class="labelText"><tspan x="372.5" fill="#000">loop</tspan></text><text x="475" y="295" fill="#000" class="loopText" style="text-anchor:middle"><tspan x="475" fill="#000">[ until full ]</tspan></text></g><g><text x="575" y="398" class="messageText" style="text-anchor:middle">{segments, [index: 1]}</text><line x1="475" x2="675" y1="405" y2="405" stroke="#000" stroke-width="2" marker-end="url(#crosshead)" class="messageLine0" style="fill:none"/></g><g><rect width="10" height="79" x="670" y="407" fill="#f4f4f4" stroke="#666" rx="0" ry="0"/></g><g><rect width="150" height="36" x="700" y="415" fill="#EDF2AE" stroke="#666" class="note" rx="0" ry="0"/><text x="696" y="439" fill="#000" class="noteText"><tspan x="716" fill="#000">mem_tables -&gt; segments</tspan></text></g><g><text x="472.5" y="479" class="messageText" style="text-anchor:middle">{segments, [index : 1, segment: &quot;/some/file/name&quot;]}</text><line x1="670" x2="275" y1="486" y2="486" stroke="#000" stroke-width="2" marker-end="url(#crosshead)" class="messageLine0" style="fill:none"/></g><g><rect width="150" height="65" x="0" y="506" fill="#eaeaea" stroke="#666" class="actor" rx="3" ry="3"/><text x="75" y="538.5" alignment-baseline="central" class="actor" dominant-baseline="central" style="text-anchor:middle"><tspan x="75" dy="0">Writer</tspan></text></g><g><rect width="150" height="65" x="200" y="506" fill="#eaeaea" stroke="#666" class="actor" rx="3" ry="3"/><text x="275" y="538.5" alignment-baseline="central" class="actor" dominant-baseline="central" style="text-anchor:middle"><tspan x="275" dy="0">Ra Node</tspan></text></g><g><rect width="150" height="65" x="400" y="506" fill="#eaeaea" stroke="#666" class="actor" rx="3" ry="3"/><text x="475" y="538.5" alignment-baseline="central" class="actor" dominant-baseline="central" style="text-anchor:middle"><tspan x="475" dy="0">WAL</tspan></text></g><g><rect width="150" height="65" x="600" y="506" fill="#eaeaea" stroke="#666" class="actor" rx="3" ry="3"/><text x="675" y="538.5" alignment-baseline="central" class="actor" dominant-baseline="central" style="text-anchor:middle"><tspan x="675" dy="0">Segment Writer</tspan></text></g></svg>